<svg width="316" height="97" viewBox="0 0 316 97" fill="none" xmlns="http://www.w3.org/2000/svg">
<path d="M119.875 64.6L103.156 31.7562V64.6H96.75V19.7875H103.75L120.812 53.5375L137.906 19.7875H144.875V64.6H138.5V31.7562L121.781 64.6H119.875ZM158.062 78.0375L165.031 61.6L151.969 31.3187H158.438L168.156 54.225L177.875 31.3187H184.344L164.188 78.0375H158.062ZM197.781 19.7875V58.1937H220.812V64.6H191.375V19.7875H197.781ZM234.344 31.3187V64.6H228.188V31.3187H234.344ZM227.875 18.5062H234.656V24.9125H227.875V18.5062ZM274.375 64.6H268.219V37.475H251.062V64.6H244.938V31.3187H251.062V37.1937C251.104 36.3812 251.292 35.6208 251.625 34.9125C251.958 34.1833 252.396 33.5583 252.938 33.0375C253.5 32.4958 254.146 32.0792 254.875 31.7875C255.604 31.475 256.385 31.3187 257.219 31.3187H268.219C269.073 31.3187 269.875 31.4854 270.625 31.8187C271.375 32.1312 272.021 32.5687 272.562 33.1312C273.125 33.6729 273.562 34.3187 273.875 35.0687C274.208 35.8187 274.375 36.6208 274.375 37.475V64.6ZM306.625 64.6L290.75 50.3812V64.6H284.625V18.5062H290.75V44.4437L305.344 31.3187H314L296.125 47.3812L315.281 64.6H306.625Z" fill="#F0F0F5"/>
<path d="M21.272 96.6L0 75.328L40.8813 34.4467L44.152 37.7173L6.54267 75.328L21.272 90.0587L63.0293 48.3L21.272 6.54266L6.54267 21.272L26.152 40.8827L22.8813 44.1533L0 21.272L21.272 6.71545e-07L69.572 48.3L21.272 96.6Z" fill="#F0F0F5"/>
</svg>
